<svg width="1024" height="753" viewBox="0 0 1024 753" fill="none" xmlns="http://www.w3.org/2000/svg">
<g clip-path="url(#clip0_122_130)">
<rect width="1024" height="753" fill="#121214"/>
<g opacity="0.2" filter="url(#filter0_f_122_130)">
<ellipse cx="528.5" cy="99.4973" rx="677.5" ry="342.497" fill="#B3A659"/>
</g>
<path d="M44.0293 330.438C45.5402 330.438 46.684 331.055 47.4607 332.289C48.2514 333.509 48.6468 335.285 48.6468 337.617C48.6468 339.949 48.2514 341.732 47.4607 342.966C46.684 344.2 45.5402 344.816 44.0293 344.816C42.5325 344.816 41.3887 344.2 40.5979 342.966C39.8072 341.732 39.4118 339.949 39.4118 337.617C39.4118 335.299 39.8072 333.523 40.5979 332.289C41.3887 331.055 42.5325 330.438 44.0293 330.438ZM40.9157 337.617C40.9157 339.271 41.071 340.566 41.3816 341.502L46.0839 332.492C45.5897 331.855 44.9048 331.537 44.0293 331.537C43.055 331.537 42.2924 332.038 41.7417 333.041C41.191 334.031 40.9157 335.556 40.9157 337.617ZM44.0293 343.698C45.0178 343.698 45.7873 343.203 46.3381 342.213C46.8888 341.21 47.1641 339.678 47.1641 337.617C47.1641 335.868 46.9876 334.512 46.6346 333.55L41.9324 342.64C42.4407 343.345 43.1397 343.698 44.0293 343.698Z" fill="url(#paint0_linear_122_130)" fill-opacity="0.6"/>
<path d="M45.3002 366.777H48.4138V367.855H40.3438V366.777H43.9446V355.348L40.5132 357.321L39.9201 356.405L44.1564 353.884H45.3002V366.777Z" fill="url(#paint1_linear_122_130)" fill-opacity="0.6"/>
<path d="M44.0293 376.922C45.5402 376.922 46.684 377.539 47.4607 378.773C48.2514 379.993 48.6468 381.769 48.6468 384.101C48.6468 386.433 48.2514 388.216 47.4607 389.45C46.684 390.683 45.5402 391.3 44.0293 391.3C42.5325 391.3 41.3887 390.683 40.5979 389.45C39.8072 388.216 39.4118 386.433 39.4118 384.101C39.4118 381.783 39.8072 380.007 40.5979 378.773C41.3887 377.539 42.5325 376.922 44.0293 376.922ZM40.9157 384.101C40.9157 385.755 41.071 387.05 41.3816 387.985L46.0839 378.976C45.5897 378.339 44.9048 378.02 44.0293 378.02C43.055 378.02 42.2924 378.522 41.7417 379.525C41.191 380.515 40.9157 382.04 40.9157 384.101ZM44.0293 390.182C45.0178 390.182 45.7873 389.687 46.3381 388.697C46.8888 387.694 47.1641 386.162 47.1641 384.101C47.1641 382.352 46.9876 380.996 46.6346 380.034L41.9324 389.124C42.4407 389.829 43.1397 390.182 44.0293 390.182Z" fill="url(#paint2_linear_122_130)" fill-opacity="0.6"/>
<path d="M45.3002 413.261H48.4138V414.339H40.3438V413.261H43.9446V401.832L40.5132 403.804L39.9201 402.889L44.1564 400.367H45.3002V413.261Z" fill="url(#paint3_linear_122_130)" fill-opacity="0.6"/>
<path d="M45.3002 436.503H48.4138V437.581H40.3438V436.503H43.9446V425.074L40.5132 427.046L39.9201 426.131L44.1564 423.609H45.3002V436.503Z" fill="url(#paint4_linear_122_130)" fill-opacity="0.6"/>
<path d="M44.0293 446.648C45.5402 446.648 46.684 447.265 47.4607 448.499C48.2514 449.719 48.6468 451.495 48.6468 453.827C48.6468 456.159 48.2514 457.942 47.4607 459.175C46.684 460.409 45.5402 461.026 44.0293 461.026C42.5325 461.026 41.3887 460.409 40.5979 459.175C39.8072 457.942 39.4118 456.159 39.4118 453.827C39.4118 451.508 39.8072 449.732 40.5979 448.499C41.3887 447.265 42.5325 446.648 44.0293 446.648ZM40.9157 453.827C40.9157 455.481 41.071 456.776 41.3816 457.711L46.0839 448.702C45.5897 448.065 44.9048 447.746 44.0293 447.746C43.055 447.746 42.2924 448.248 41.7417 449.251C41.191 450.241 40.9157 451.766 40.9157 453.827ZM44.0293 459.908C45.0178 459.908 45.7873 459.413 46.3381 458.423C46.8888 457.42 47.1641 455.888 47.1641 453.827C47.1641 452.078 46.9876 450.722 46.6346 449.76L41.9324 458.85C42.4407 459.555 43.1397 459.908 44.0293 459.908Z" fill="url(#paint5_linear_122_130)" fill-opacity="0.6"/>
<path d="M45.3002 482.987H48.4138V484.065H40.3438V482.987H43.9446V471.558L40.5132 473.53L39.9201 472.615L44.1564 470.093H45.3002V482.987Z" fill="url(#paint6_linear_122_130)" fill-opacity="0.6"/>
<path d="M44.0293 493.132C45.5402 493.132 46.684 493.749 47.4607 494.982C48.2514 496.203 48.6468 497.979 48.6468 500.311C48.6468 502.643 48.2514 504.425 47.4607 505.659C46.684 506.893 45.5402 507.51 44.0293 507.51C42.5325 507.51 41.3887 506.893 40.5979 505.659C39.8072 504.425 39.4118 502.643 39.4118 500.311C39.4118 497.992 39.8072 496.216 40.5979 494.982C41.3887 493.749 42.5325 493.132 44.0293 493.132ZM40.9157 500.311C40.9157 501.965 41.071 503.26 41.3816 504.195L46.0839 495.186C45.5897 494.549 44.9048 494.23 44.0293 494.23C43.055 494.23 42.2924 494.732 41.7417 495.735C41.191 496.725 40.9157 498.25 40.9157 500.311ZM44.0293 506.391C45.0178 506.391 45.7873 505.897 46.3381 504.907C46.8888 503.904 47.1641 502.371 47.1641 500.311C47.1641 498.562 46.9876 497.206 46.6346 496.243L41.9324 505.334C42.4407 506.039 43.1397 506.391 44.0293 506.391Z" fill="url(#paint7_linear_122_130)" fill-opacity="0.6"/>
<path d="M44.0293 516.374C45.5402 516.374 46.684 516.991 47.4607 518.224C48.2514 519.445 48.6468 521.221 48.6468 523.553C48.6468 525.885 48.2514 527.667 47.4607 528.901C46.684 530.135 45.5402 530.752 44.0293 530.752C42.5325 530.752 41.3887 530.135 40.5979 528.901C39.8072 527.667 39.4118 525.885 39.4118 523.553C39.4118 521.234 39.8072 519.458 40.5979 518.224C41.3887 516.991 42.5325 516.374 44.0293 516.374ZM40.9157 523.553C40.9157 525.207 41.071 526.501 41.3816 527.437L46.0839 518.428C45.5897 517.791 44.9048 517.472 44.0293 517.472C43.055 517.472 42.2924 517.974 41.7417 518.977C41.191 519.967 40.9157 521.492 40.9157 523.553ZM44.0293 529.633C45.0178 529.633 45.7873 529.138 46.3381 528.149C46.8888 527.145 47.1641 525.613 47.1641 523.553C47.1641 521.804 46.9876 520.448 46.6346 519.485L41.9324 528.576C42.4407 529.281 43.1397 529.633 44.0293 529.633Z" fill="url(#paint8_linear_122_130)" fill-opacity="0.6"/>
<path d="M45.3002 552.713H48.4138V553.79H40.3438V552.713H43.9446V541.283L40.5132 543.256L39.9201 542.341L44.1564 539.819H45.3002V552.713Z" fill="url(#paint9_linear_122_130)" fill-opacity="0.6"/>
<path d="M44.0293 562.858C45.5402 562.858 46.684 563.474 47.4607 564.708C48.2514 565.928 48.6468 567.705 48.6468 570.036C48.6468 572.368 48.2514 574.151 47.4607 575.385C46.684 576.619 45.5402 577.236 44.0293 577.236C42.5325 577.236 41.3887 576.619 40.5979 575.385C39.8072 574.151 39.4118 572.368 39.4118 570.036C39.4118 567.718 39.8072 565.942 40.5979 564.708C41.3887 563.474 42.5325 562.858 44.0293 562.858ZM40.9157 570.036C40.9157 571.691 41.071 572.985 41.3816 573.921L46.0839 564.912C45.5897 564.274 44.9048 563.956 44.0293 563.956C43.055 563.956 42.2924 564.457 41.7417 565.461C41.191 566.45 40.9157 567.976 40.9157 570.036ZM44.0293 576.117C45.0178 576.117 45.7873 575.622 46.3381 574.633C46.8888 573.629 47.1641 572.097 47.1641 570.036C47.1641 568.288 46.9876 566.932 46.6346 565.969L41.9324 575.06C42.4407 575.765 43.1397 576.117 44.0293 576.117Z" fill="url(#paint10_linear_122_130)" fill-opacity="0.6"/>
<path d="M45.3002 599.196H48.4138V600.274H40.3438V599.196H43.9446V587.767L40.5132 589.74L39.9201 588.825L44.1564 586.303H45.3002V599.196Z" fill="url(#paint11_linear_122_130)" fill-opacity="0.6"/>
<path d="M45.3002 622.438H48.4138V623.516H40.3438V622.438H43.9446V611.009L40.5132 612.982L39.9201 612.067L44.1564 609.545H45.3002V622.438Z" fill="url(#paint12_linear_122_130)" fill-opacity="0.6"/>
<path d="M83.3659 376.922C84.8769 376.922 86.0207 377.539 86.7973 378.773C87.5881 379.993 87.9834 381.769 87.9834 384.101C87.9834 386.433 87.5881 388.216 86.7973 389.45C86.0207 390.683 84.8769 391.3 83.3659 391.3C81.8691 391.3 80.7253 390.683 79.9346 389.45C79.1438 388.216 78.7484 386.433 78.7484 384.101C78.7484 381.783 79.1438 380.007 79.9346 378.773C80.7253 377.539 81.8691 376.922 83.3659 376.922ZM80.2523 384.101C80.2523 385.755 80.4076 387.05 80.7183 387.985L85.4205 378.976C84.9263 378.339 84.2414 378.02 83.3659 378.02C82.3916 378.02 81.6291 378.522 81.0784 379.525C80.5276 380.515 80.2523 382.04 80.2523 384.101ZM83.3659 390.182C84.3544 390.182 85.124 389.687 85.6747 388.697C86.2254 387.694 86.5008 386.162 86.5008 384.101C86.5008 382.352 86.3242 380.996 85.9712 380.034L81.269 389.124C81.7773 389.829 82.4763 390.182 83.3659 390.182Z" fill="url(#paint13_linear_122_130)" fill-opacity="0.6"/>
<path d="M84.6368 413.261H87.7505V414.339H79.6804V413.261H83.2812V401.832L79.8498 403.804L79.2568 402.889L83.493 400.367H84.6368V413.261Z" fill="url(#paint14_linear_122_130)" fill-opacity="0.6"/>
<path d="M83.3659 423.406C84.8769 423.406 86.0207 424.023 86.7973 425.257C87.5881 426.477 87.9834 428.253 87.9834 430.585C87.9834 432.917 87.5881 434.7 86.7973 435.933C86.0207 437.167 84.8769 437.784 83.3659 437.784C81.8691 437.784 80.7253 437.167 79.9346 435.933C79.1438 434.7 78.7484 432.917 78.7484 430.585C78.7484 428.267 79.1438 426.49 79.9346 425.257C80.7253 424.023 81.8691 423.406 83.3659 423.406ZM80.2523 430.585C80.2523 432.239 80.4076 433.534 80.7183 434.469L85.4205 425.46C84.9263 424.823 84.2414 424.504 83.3659 424.504C82.3916 424.504 81.6291 425.006 81.0784 426.009C80.5276 426.999 80.2523 428.524 80.2523 430.585ZM83.3659 436.666C84.3544 436.666 85.124 436.171 85.6747 435.181C86.2254 434.178 86.5008 432.646 86.5008 430.585C86.5008 428.836 86.3242 427.48 85.9712 426.518L81.269 435.608C81.7773 436.313 82.4763 436.666 83.3659 436.666Z" fill="url(#paint15_linear_122_130)" fill-opacity="0.6"/>
<path d="M83.3659 446.648C84.8769 446.648 86.0207 447.265 86.7973 448.499C87.5881 449.719 87.9834 451.495 87.9834 453.827C87.9834 456.159 87.5881 457.942 86.7973 459.175C86.0207 460.409 84.8769 461.026 83.3659 461.026C81.8691 461.026 80.7253 460.409 79.9346 459.175C79.1438 457.942 78.7484 456.159 78.7484 453.827C78.7484 451.508 79.1438 449.732 79.9346 448.499C80.7253 447.265 81.8691 446.648 83.3659 446.648ZM80.2523 453.827C80.2523 455.481 80.4076 456.776 80.7183 457.711L85.4205 448.702C84.9263 448.065 84.2414 447.746 83.3659 447.746C82.3916 447.746 81.6291 448.248 81.0784 449.251C80.5276 450.241 80.2523 451.766 80.2523 453.827ZM83.3659 459.908C84.3544 459.908 85.124 459.413 85.6747 458.423C86.2254 457.42 86.5008 455.888 86.5008 453.827C86.5008 452.078 86.3242 450.722 85.9712 449.76L81.269 458.85C81.7773 459.555 82.4763 459.908 83.3659 459.908Z" fill="url(#paint16_linear_122_130)" fill-opacity="0.6"/>
<path d="M84.6368 482.987H87.7505V484.065H79.6804V482.987H83.2812V471.558L79.8498 473.53L79.2568 472.615L83.493 470.093H84.6368V482.987Z" fill="url(#paint17_linear_122_130)" fill-opacity="0.6"/>
<path d="M83.3659 493.132C84.8769 493.132 86.0207 493.749 86.7973 494.982C87.5881 496.203 87.9834 497.979 87.9834 500.311C87.9834 502.643 87.5881 504.425 86.7973 505.659C86.0207 506.893 84.8769 507.51 83.3659 507.51C81.8691 507.51 80.7253 506.893 79.9346 505.659C79.1438 504.425 78.7484 502.643 78.7484 500.311C78.7484 497.992 79.1438 496.216 79.9346 494.982C80.7253 493.749 81.8691 493.132 83.3659 493.132ZM80.2523 500.311C80.2523 501.965 80.4076 503.26 80.7183 504.195L85.4205 495.186C84.9263 494.549 84.2414 494.23 83.3659 494.23C82.3916 494.23 81.6291 494.732 81.0784 495.735C80.5276 496.725 80.2523 498.25 80.2523 500.311ZM83.3659 506.391C84.3544 506.391 85.124 505.897 85.6747 504.907C86.2254 503.904 86.5008 502.371 86.5008 500.311C86.5008 498.562 86.3242 497.206 85.9712 496.243L81.269 505.334C81.7773 506.039 82.4763 506.391 83.3659 506.391Z" fill="url(#paint18_linear_122_130)" fill-opacity="0.6"/>
<path d="M84.6368 529.471H87.7505V530.548H79.6804V529.471H83.2812V518.041L79.8498 520.014L79.2568 519.099L83.493 516.577H84.6368V529.471Z" fill="url(#paint19_linear_122_130)" fill-opacity="0.6"/>
<path d="M83.3659 539.616C84.8769 539.616 86.0207 540.233 86.7973 541.466C87.5881 542.687 87.9834 544.463 87.9834 546.795C87.9834 549.126 87.5881 550.909 86.7973 552.143C86.0207 553.377 84.8769 553.994 83.3659 553.994C81.8691 553.994 80.7253 553.377 79.9346 552.143C79.1438 550.909 78.7484 549.126 78.7484 546.795C78.7484 544.476 79.1438 542.7 79.9346 541.466C80.7253 540.233 81.8691 539.616 83.3659 539.616ZM80.2523 546.795C80.2523 548.449 80.4076 549.743 80.7183 550.679L85.4205 541.67C84.9263 541.032 84.2414 540.714 83.3659 540.714C82.3916 540.714 81.6291 541.216 81.0784 542.219C80.5276 543.209 80.2523 544.734 80.2523 546.795ZM83.3659 552.875C84.3544 552.875 85.124 552.38 85.6747 551.391C86.2254 550.387 86.5008 548.855 86.5008 546.795C86.5008 545.046 86.3242 543.69 85.9712 542.727L81.269 551.818C81.7773 552.523 82.4763 552.875 83.3659 552.875Z" fill="url(#paint20_linear_122_130)" fill-opacity="0.6"/>
<path d="M83.3659 562.858C84.8769 562.858 86.0207 563.474 86.7973 564.708C87.5881 565.928 87.9834 567.705 87.9834 570.036C87.9834 572.368 87.5881 574.151 86.7973 575.385C86.0207 576.619 84.8769 577.236 83.3659 577.236C81.8691 577.236 80.7253 576.619 79.9346 575.385C79.1438 574.151 78.7484 572.368 78.7484 570.036C78.7484 567.718 79.1438 565.942 79.9346 564.708C80.7253 563.474 81.8691 562.858 83.3659 562.858ZM80.2523 570.036C80.2523 571.691 80.4076 572.985 80.7183 573.921L85.4205 564.912C84.9263 564.274 84.2414 563.956 83.3659 563.956C82.3916 563.956 81.6291 564.457 81.0784 565.461C80.5276 566.45 80.2523 567.976 80.2523 570.036ZM83.3659 576.117C84.3544 576.117 85.124 575.622 85.6747 574.633C86.2254 573.629 86.5008 572.097 86.5008 570.036C86.5008 568.288 86.3242 566.932 85.9712 565.969L81.269 575.06C81.7773 575.765 82.4763 576.117 83.3659 576.117Z" fill="url(#paint21_linear_122_130)" fill-opacity="0.6"/>
<path d="M84.6368 599.196H87.7505V600.274H79.6804V599.196H83.2812V587.767L79.8498 589.74L79.2568 588.825L83.493 586.303H84.6368V599.196Z" fill="url(#paint22_linear_122_130)" fill-opacity="0.6"/>
<path d="M83.3659 609.341C84.8769 609.341 86.0207 609.958 86.7973 611.192C87.5881 612.412 87.9834 614.188 87.9834 616.52C87.9834 618.852 87.5881 620.635 86.7973 621.869C86.0207 623.103 84.8769 623.719 83.3659 623.719C81.8691 623.719 80.7253 623.103 79.9346 621.869C79.1438 620.635 78.7484 618.852 78.7484 616.52C78.7484 614.202 79.1438 612.426 79.9346 611.192C80.7253 609.958 81.8691 609.341 83.3659 609.341ZM80.2523 616.52C80.2523 618.174 80.4076 619.469 80.7183 620.405L85.4205 611.395C84.9263 610.758 84.2414 610.44 83.3659 610.44C82.3916 610.44 81.6291 610.941 81.0784 611.945C80.5276 612.934 80.2523 614.46 80.2523 616.52ZM83.3659 622.601C84.3544 622.601 85.124 622.106 85.6747 621.116C86.2254 620.113 86.5008 618.581 86.5008 616.52C86.5008 614.771 86.3242 613.416 85.9712 612.453L81.269 621.543C81.7773 622.248 82.4763 622.601 83.3659 622.601Z" fill="url(#paint23_linear_122_130)" fill-opacity="0.6"/>
<path d="M84.6368 645.68H87.7505V646.758H79.6804V645.68H83.2812V634.251L79.8498 636.224L79.2568 635.309L83.493 632.787H84.6368V645.68Z" fill="url(#paint24_linear_122_130)" fill-opacity="0.6"/>
<path d="M84.6368 668.922H87.7505V670H79.6804V668.922H83.2812V657.493L79.8498 659.466L79.2568 658.55L83.493 656.029H84.6368V668.922Z" fill="url(#paint25_linear_122_130)" fill-opacity="0.6"/>
<path d="M24.361 400.164C25.8719 400.164 27.0157 400.781 27.7923 402.015C28.5831 403.235 28.9785 405.011 28.9785 407.343C28.9785 409.675 28.5831 411.458 27.7923 412.692C27.0157 413.925 25.8719 414.542 24.361 414.542C22.8642 414.542 21.7204 413.925 20.9296 412.692C20.1389 411.458 19.7435 409.675 19.7435 407.343C19.7435 405.025 20.1389 403.249 20.9296 402.015C21.7204 400.781 22.8642 400.164 24.361 400.164ZM21.2473 407.343C21.2473 408.997 21.4027 410.292 21.7133 411.227L26.4156 402.218C25.9213 401.581 25.2365 401.262 24.361 401.262C23.3866 401.262 22.6241 401.764 22.0734 402.767C21.5227 403.757 21.2473 405.282 21.2473 407.343ZM24.361 413.424C25.3494 413.424 26.119 412.929 26.6697 411.939C27.2205 410.936 27.4958 409.404 27.4958 407.343C27.4958 405.594 27.3193 404.238 26.9663 403.276L22.264 412.366C22.7724 413.071 23.4714 413.424 24.361 413.424Z" fill="url(#paint26_linear_122_130)" fill-opacity="0.6"/>
<path d="M24.361 423.406C25.8719 423.406 27.0157 424.023 27.7923 425.257C28.5831 426.477 28.9785 428.253 28.9785 430.585C28.9785 432.917 28.5831 434.7 27.7923 435.933C27.0157 437.167 25.8719 437.784 24.361 437.784C22.8642 437.784 21.7204 437.167 20.9296 435.933C20.1389 434.7 19.7435 432.917 19.7435 430.585C19.7435 428.267 20.1389 426.49 20.9296 425.257C21.7204 424.023 22.8642 423.406 24.361 423.406ZM21.2473 430.585C21.2473 432.239 21.4027 433.534 21.7133 434.469L26.4156 425.46C25.9213 424.823 25.2365 424.504 24.361 424.504C23.3866 424.504 22.6241 425.006 22.0734 426.009C21.5227 426.999 21.2473 428.524 21.2473 430.585ZM24.361 436.666C25.3494 436.666 26.119 436.171 26.6697 435.181C27.2205 434.178 27.4958 432.646 27.4958 430.585C27.4958 428.836 27.3193 427.48 26.9663 426.518L22.264 435.608C22.7724 436.313 23.4714 436.666 24.361 436.666Z" fill="url(#paint27_linear_122_130)" fill-opacity="0.6"/>
<path d="M25.6319 459.745H28.7455V460.823H20.6754V459.745H24.2763V448.316L20.8449 450.288L20.2518 449.373L24.4881 446.851H25.6319V459.745Z" fill="url(#paint28_linear_122_130)" fill-opacity="0.6"/>
<path d="M24.361 469.89C25.8719 469.89 27.0157 470.507 27.7923 471.741C28.5831 472.961 28.9785 474.737 28.9785 477.069C28.9785 479.401 28.5831 481.184 27.7923 482.417C27.0157 483.651 25.8719 484.268 24.361 484.268C22.8642 484.268 21.7204 483.651 20.9296 482.417C20.1389 481.184 19.7435 479.401 19.7435 477.069C19.7435 474.75 20.1389 472.974 20.9296 471.741C21.7204 470.507 22.8642 469.89 24.361 469.89ZM21.2473 477.069C21.2473 478.723 21.4027 480.018 21.7133 480.953L26.4156 471.944C25.9213 471.307 25.2365 470.988 24.361 470.988C23.3866 470.988 22.6241 471.49 22.0734 472.493C21.5227 473.483 21.2473 475.008 21.2473 477.069ZM24.361 483.149C25.3494 483.149 26.119 482.655 26.6697 481.665C27.2205 480.662 27.4958 479.13 27.4958 477.069C27.4958 475.32 27.3193 473.964 26.9663 473.001L22.264 482.092C22.7724 482.797 23.4714 483.149 24.361 483.149Z" fill="url(#paint29_linear_122_130)" fill-opacity="0.6"/>
<path d="M25.6319 506.229H28.7455V507.307H20.6754V506.229H24.2763V494.799L20.8449 496.772L20.2518 495.857L24.4881 493.335H25.6319V506.229Z" fill="url(#paint30_linear_122_130)" fill-opacity="0.6"/>
<path d="M25.6319 529.471H28.7455V530.548H20.6754V529.471H24.2763V518.041L20.8449 520.014L20.2518 519.099L24.4881 516.577H25.6319V529.471Z" fill="url(#paint31_linear_122_130)" fill-opacity="0.6"/>
<path d="M64.9685 366.777H68.0821V367.855H60.0121V366.777H63.6129V355.348L60.1815 357.321L59.5885 356.405L63.8247 353.884H64.9685V366.777Z" fill="url(#paint32_linear_122_130)" fill-opacity="0.6"/>
<path d="M63.6976 376.922C65.2085 376.922 66.3523 377.539 67.129 378.773C67.9197 379.993 68.3151 381.769 68.3151 384.101C68.3151 386.433 67.9197 388.216 67.129 389.45C66.3523 390.683 65.2085 391.3 63.6976 391.3C62.2008 391.3 61.057 390.683 60.2663 389.45C59.4755 388.216 59.0801 386.433 59.0801 384.101C59.0801 381.783 59.4755 380.007 60.2663 378.773C61.057 377.539 62.2008 376.922 63.6976 376.922ZM60.584 384.101C60.584 385.755 60.7393 387.05 61.05 387.985L65.7522 378.976C65.258 378.339 64.5731 378.02 63.6976 378.02C62.7233 378.02 61.9608 378.522 61.41 379.525C60.8593 380.515 60.584 382.04 60.584 384.101ZM63.6976 390.182C64.6861 390.182 65.4557 389.687 66.0064 388.697C66.5571 387.694 66.8324 386.162 66.8324 384.101C66.8324 382.352 66.6559 380.996 66.3029 380.034L61.6007 389.124C62.109 389.829 62.808 390.182 63.6976 390.182Z" fill="url(#paint33_linear_122_130)" fill-opacity="0.6"/>
<path d="M64.9685 413.261H68.0821V414.339H60.0121V413.261H63.6129V401.832L60.1815 403.804L59.5885 402.889L63.8247 400.367H64.9685V413.261Z" fill="url(#paint34_linear_122_130)" fill-opacity="0.6"/>
<path d="M64.9685 436.503H68.0821V437.581H60.0121V436.503H63.6129V425.074L60.1815 427.046L59.5885 426.131L63.8247 423.609H64.9685V436.503Z" fill="url(#paint35_linear_122_130)" fill-opacity="0.6"/>
<path d="M63.6976 446.648C65.2085 446.648 66.3523 447.265 67.129 448.499C67.9197 449.719 68.3151 451.495 68.3151 453.827C68.3151 456.159 67.9197 457.942 67.129 459.175C66.3523 460.409 65.2085 461.026 63.6976 461.026C62.2008 461.026 61.057 460.409 60.2663 459.175C59.4755 457.942 59.0801 456.159 59.0801 453.827C59.0801 451.508 59.4755 449.732 60.2663 448.499C61.057 447.265 62.2008 446.648 63.6976 446.648ZM60.584 453.827C60.584 455.481 60.7393 456.776 61.05 457.711L65.7522 448.702C65.258 448.065 64.5731 447.746 63.6976 447.746C62.7233 447.746 61.9608 448.248 61.41 449.251C60.8593 450.241 60.584 451.766 60.584 453.827ZM63.6976 459.908C64.6861 459.908 65.4557 459.413 66.0064 458.423C66.5571 457.42 66.8324 455.888 66.8324 453.827C66.8324 452.078 66.6559 450.722 66.3029 449.76L61.6007 458.85C62.109 459.555 62.808 459.908 63.6976 459.908Z" fill="url(#paint36_linear_122_130)" fill-opacity="0.6"/>
<path d="M64.9685 482.987H68.0821V484.065H60.0121V482.987H63.6129V471.558L60.1815 473.53L59.5885 472.615L63.8247 470.093H64.9685V482.987Z" fill="url(#paint37_linear_122_130)" fill-opacity="0.6"/>
<path d="M64.9685 506.229H68.0821V507.307H60.0121V506.229H63.6129V494.799L60.1815 496.772L59.5885 495.857L63.8247 493.335H64.9685V506.229Z" fill="url(#paint38_linear_122_130)" fill-opacity="0.6"/>
<path d="M63.6976 516.374C65.2085 516.374 66.3523 516.991 67.129 518.224C67.9197 519.445 68.3151 521.221 68.3151 523.553C68.3151 525.885 67.9197 527.667 67.129 528.901C66.3523 530.135 65.2085 530.752 63.6976 530.752C62.2008 530.752 61.057 530.135 60.2663 528.901C59.4755 527.667 59.0801 525.885 59.0801 523.553C59.0801 521.234 59.4755 519.458 60.2663 518.224C61.057 516.991 62.2008 516.374 63.6976 516.374ZM60.584 523.553C60.584 525.207 60.7393 526.501 61.05 527.437L65.7522 518.428C65.258 517.791 64.5731 517.472 63.6976 517.472C62.7233 517.472 61.9608 517.974 61.41 518.977C60.8593 519.967 60.584 521.492 60.584 523.553ZM63.6976 529.633C64.6861 529.633 65.4557 529.138 66.0064 528.149C66.5571 527.145 66.8324 525.613 66.8324 523.553C66.8324 521.804 66.6559 520.448 66.3029 519.485L61.6007 528.576C62.109 529.281 62.808 529.633 63.6976 529.633Z" fill="url(#paint39_linear_122_130)" fill-opacity="0.6"/>
<path d="M64.9685 552.713H68.0821V553.79H60.0121V552.713H63.6129V541.283L60.1815 543.256L59.5885 542.341L63.8247 539.819H64.9685V552.713Z" fill="url(#paint40_linear_122_130)" fill-opacity="0.6"/>
<path d="M63.6976 562.858C65.2085 562.858 66.3523 563.474 67.129 564.708C67.9197 565.928 68.3151 567.705 68.3151 570.036C68.3151 572.368 67.9197 574.151 67.129 575.385C66.3523 576.619 65.2085 577.236 63.6976 577.236C62.2008 577.236 61.057 576.619 60.2663 575.385C59.4755 574.151 59.0801 572.368 59.0801 570.036C59.0801 567.718 59.4755 565.942 60.2663 564.708C61.057 563.474 62.2008 562.858 63.6976 562.858ZM60.584 570.036C60.584 571.691 60.7393 572.985 61.05 573.921L65.7522 564.912C65.258 564.274 64.5731 563.956 63.6976 563.956C62.7233 563.956 61.9608 564.457 61.41 565.461C60.8593 566.45 60.584 567.976 60.584 570.036ZM63.6976 576.117C64.6861 576.117 65.4557 575.622 66.0064 574.633C66.5571 573.629 66.8324 572.097 66.8324 570.036C66.8324 568.288 66.6559 566.932 66.3029 565.969L61.6007 575.06C62.109 575.765 62.808 576.117 63.6976 576.117Z" fill="url(#paint41_linear_122_130)" fill-opacity="0.6"/>
<path d="M103.034 353.68C104.545 353.68 105.689 354.297 106.466 355.531C107.256 356.751 107.652 358.527 107.652 360.859C107.652 363.191 107.256 364.974 106.466 366.208C105.689 367.441 104.545 368.058 103.034 368.058C101.537 368.058 100.394 367.441 99.6029 366.208C98.8121 364.974 98.4167 363.191 98.4167 360.859C98.4167 358.541 98.8121 356.765 99.6029 355.531C100.394 354.297 101.537 353.68 103.034 353.68ZM99.9206 360.859C99.9206 362.513 100.076 363.808 100.387 364.743L105.089 355.734C104.595 355.097 103.91 354.778 103.034 354.778C102.06 354.778 101.297 355.28 100.747 356.283C100.196 357.273 99.9206 358.798 99.9206 360.859ZM103.034 366.94C104.023 366.94 104.792 366.445 105.343 365.455C105.894 364.452 106.169 362.92 106.169 360.859C106.169 359.11 105.993 357.754 105.64 356.792L100.937 365.882C101.446 366.587 102.145 366.94 103.034 366.94Z" fill="url(#paint42_linear_122_130)" fill-opacity="0.6"/>
<path d="M104.305 390.019H107.419V391.097H99.3487V390.019H102.95V378.59L99.5182 380.562L98.9251 379.647L103.161 377.126H104.305V390.019Z" fill="url(#paint43_linear_122_130)" fill-opacity="0.6"/>
<path d="M104.305 413.261H107.419V414.339H99.3487V413.261H102.95V401.832L99.5182 403.804L98.9251 402.889L103.161 400.367H104.305V413.261Z" fill="url(#paint44_linear_122_130)" fill-opacity="0.6"/>
<path d="M103.034 423.406C104.545 423.406 105.689 424.023 106.466 425.257C107.256 426.477 107.652 428.253 107.652 430.585C107.652 432.917 107.256 434.7 106.466 435.933C105.689 437.167 104.545 437.784 103.034 437.784C101.537 437.784 100.394 437.167 99.6029 435.933C98.8121 434.7 98.4167 432.917 98.4167 430.585C98.4167 428.267 98.8121 426.49 99.6029 425.257C100.394 424.023 101.537 423.406 103.034 423.406ZM99.9206 430.585C99.9206 432.239 100.076 433.534 100.387 434.469L105.089 425.46C104.595 424.823 103.91 424.504 103.034 424.504C102.06 424.504 101.297 425.006 100.747 426.009C100.196 426.999 99.9206 428.524 99.9206 430.585ZM103.034 436.666C104.023 436.666 104.792 436.171 105.343 435.181C105.894 434.178 106.169 432.646 106.169 430.585C106.169 428.836 105.993 427.48 105.64 426.518L100.937 435.608C101.446 436.313 102.145 436.666 103.034 436.666Z" fill="url(#paint45_linear_122_130)" fill-opacity="0.6"/>
<path d="M103.034 446.648C104.545 446.648 105.689 447.265 106.466 448.499C107.256 449.719 107.652 451.495 107.652 453.827C107.652 456.159 107.256 457.942 106.466 459.175C105.689 460.409 104.545 461.026 103.034 461.026C101.537 461.026 100.394 460.409 99.6029 459.175C98.8121 457.942 98.4167 456.159 98.4167 453.827C98.4167 451.508 98.8121 449.732 99.6029 448.499C100.394 447.265 101.537 446.648 103.034 446.648ZM99.9206 453.827C99.9206 455.481 100.076 456.776 100.387 457.711L105.089 448.702C104.595 448.065 103.91 447.746 103.034 447.746C102.06 447.746 101.297 448.248 100.747 449.251C100.196 450.241 99.9206 451.766 99.9206 453.827ZM103.034 459.908C104.023 459.908 104.792 459.413 105.343 458.423C105.894 457.42 106.169 455.888 106.169 453.827C106.169 452.078 105.993 450.722 105.64 449.76L100.937 458.85C101.446 459.555 102.145 459.908 103.034 459.908Z" fill="url(#paint46_linear_122_130)" fill-opacity="0.6"/>
<g opacity="0.6">
<path d="M940.183 36.8692C941.625 36.8692 942.716 37.4612 943.457 38.6452C944.211 39.8162 944.589 41.5206 944.589 43.7584C944.589 45.9963 944.211 47.7072 943.457 48.8912C942.716 50.0752 941.625 50.6672 940.183 50.6672C938.755 50.6672 937.664 50.0752 936.91 48.8912C936.155 47.7072 935.778 45.9963 935.778 43.7584C935.778 41.5336 936.155 39.8292 936.91 38.6452C937.664 37.4612 938.755 36.8692 940.183 36.8692ZM937.213 43.7584C937.213 45.3458 937.361 46.5883 937.657 47.486L942.144 38.8404C941.672 38.2289 941.019 37.9231 940.183 37.9231C939.254 37.9231 938.526 38.4045 938.001 39.3673C937.476 40.3171 937.213 41.7808 937.213 43.7584ZM940.183 49.5938C941.126 49.5938 941.861 49.1189 942.386 48.1691C942.911 47.2063 943.174 45.7361 943.174 43.7584C943.174 42.0801 943.006 40.779 942.669 39.8552L938.183 48.5789C938.668 49.2555 939.335 49.5938 940.183 49.5938Z" fill="url(#paint47_linear_122_130)"/>
<path d="M941.396 71.7419H944.366V72.7762H936.667V71.7419H940.103V60.7738L936.829 62.6668L936.263 61.7886L940.305 59.3686H941.396V71.7419Z" fill="url(#paint48_linear_122_130)"/>
<path d="M940.183 81.4777C941.625 81.4777 942.716 82.0696 943.457 83.2536C944.211 84.4246 944.589 86.129 944.589 88.3669C944.589 90.6047 944.211 92.3156 943.457 93.4996C942.716 94.6836 941.625 95.2756 940.183 95.2756C938.755 95.2756 937.664 94.6836 936.91 93.4996C936.155 92.3156 935.778 90.6047 935.778 88.3669C935.778 86.142 936.155 84.4376 936.91 83.2536C937.664 82.0696 938.755 81.4777 940.183 81.4777ZM937.213 88.3669C937.213 89.9542 937.361 91.1967 937.657 92.0945L942.144 83.4488C941.672 82.8373 941.019 82.5315 940.183 82.5315C939.254 82.5315 938.526 83.0129 938.001 83.9757C937.476 84.9255 937.213 86.3892 937.213 88.3669ZM940.183 94.2022C941.126 94.2022 941.861 93.7273 942.386 92.7775C942.911 91.8147 943.174 90.3445 943.174 88.3669C943.174 86.6885 943.006 85.3874 942.669 84.4636L938.183 93.1874C938.668 93.8639 939.335 94.2022 940.183 94.2022Z" fill="url(#paint49_linear_122_130)"/>
<path d="M941.396 116.35H944.366V117.385H936.667V116.35H940.103V105.382L936.829 107.275L936.263 106.397L940.305 103.977H941.396V116.35Z" fill="url(#paint50_linear_122_130)"/>
<path d="M941.396 138.654H944.366V139.689H936.667V138.654H940.103V127.686L936.829 129.579L936.263 128.701L940.305 126.281H941.396V138.654Z" fill="url(#paint51_linear_122_130)"/>
<path d="M940.183 148.39C941.625 148.39 942.716 148.982 943.457 150.166C944.211 151.337 944.589 153.042 944.589 155.279C944.589 157.517 944.211 159.228 943.457 160.412C942.716 161.596 941.625 162.188 940.183 162.188C938.755 162.188 937.664 161.596 936.91 160.412C936.155 159.228 935.778 157.517 935.778 155.279C935.778 153.055 936.155 151.35 936.91 150.166C937.664 148.982 938.755 148.39 940.183 148.39ZM937.213 155.279C937.213 156.867 937.361 158.109 937.657 159.007L942.144 150.361C941.672 149.75 941.019 149.444 940.183 149.444C939.254 149.444 938.526 149.926 938.001 150.888C937.476 151.838 937.213 153.302 937.213 155.279ZM940.183 161.115C941.126 161.115 941.861 160.64 942.386 159.69C942.911 158.727 943.174 157.257 943.174 155.279C943.174 153.601 943.006 152.3 942.669 151.376L938.183 160.1C938.668 160.777 939.335 161.115 940.183 161.115Z" fill="url(#paint52_linear_122_130)"/>
<path d="M941.396 183.263H944.366V184.297H936.667V183.263H940.103V172.295L936.829 174.188L936.263 173.31L940.305 170.89H941.396V183.263Z" fill="url(#paint53_linear_122_130)"/>
<path d="M940.183 192.999C941.625 192.999 942.716 193.591 943.457 194.775C944.211 195.946 944.589 197.65 944.589 199.888C944.589 202.126 944.211 203.837 943.457 205.021C942.716 206.205 941.625 206.797 940.183 206.797C938.755 206.797 937.664 206.205 936.91 205.021C936.155 203.837 935.778 202.126 935.778 199.888C935.778 197.663 936.155 195.959 936.91 194.775C937.664 193.591 938.755 192.999 940.183 192.999ZM937.213 199.888C937.213 201.475 937.361 202.718 937.657 203.615L942.144 194.97C941.672 194.358 941.019 194.053 940.183 194.053C939.254 194.053 938.526 194.534 938.001 195.497C937.476 196.447 937.213 197.91 937.213 199.888ZM940.183 205.723C941.126 205.723 941.861 205.248 942.386 204.299C942.911 203.336 943.174 201.866 943.174 199.888C943.174 198.21 943.006 196.908 942.669 195.985L938.183 204.708C938.668 205.385 939.335 205.723 940.183 205.723Z" fill="url(#paint54_linear_122_130)"/>
<path d="M940.183 215.303C941.625 215.303 942.716 215.895 943.457 217.079C944.211 218.25 944.589 219.954 944.589 222.192C944.589 224.43 944.211 226.141 943.457 227.325C942.716 228.509 941.625 229.101 940.183 229.101C938.755 229.101 937.664 228.509 936.91 227.325C936.155 226.141 935.778 224.43 935.778 222.192C935.778 219.967 936.155 218.263 936.91 217.079C937.664 215.895 938.755 215.303 940.183 215.303ZM937.213 222.192C937.213 223.779 937.361 225.022 937.657 225.92L942.144 217.274C941.672 216.663 941.019 216.357 940.183 216.357C939.254 216.357 938.526 216.838 938.001 217.801C937.476 218.751 937.213 220.214 937.213 222.192ZM940.183 228.027C941.126 228.027 941.861 227.553 942.386 226.603C942.911 225.64 943.174 224.17 943.174 222.192C943.174 220.514 943.006 219.213 942.669 218.289L938.183 227.013C938.668 227.689 939.335 228.027 940.183 228.027Z" fill="url(#paint55_linear_122_130)"/>
<path d="M941.396 250.176H944.366V251.21H936.667V250.176H940.103V239.207L936.829 241.101L936.263 240.222L940.305 237.802H941.396V250.176Z" fill="url(#paint56_linear_122_130)"/>
<path d="M940.183 259.911C941.625 259.911 942.716 260.503 943.457 261.687C944.211 262.858 944.589 264.563 944.589 266.801C944.589 269.038 944.211 270.749 943.457 271.933C942.716 273.117 941.625 273.709 940.183 273.709C938.755 273.709 937.664 273.117 936.91 271.933C936.155 270.749 935.778 269.038 935.778 266.801C935.778 264.576 936.155 262.871 936.91 261.687C937.664 260.503 938.755 259.911 940.183 259.911ZM937.213 266.801C937.213 268.388 937.361 269.63 937.657 270.528L942.144 261.882C941.672 261.271 941.019 260.965 940.183 260.965C939.254 260.965 938.526 261.447 938.001 262.409C937.476 263.359 937.213 264.823 937.213 266.801ZM940.183 272.636C941.126 272.636 941.861 272.161 942.386 271.211C942.911 270.248 943.174 268.778 943.174 266.801C943.174 265.122 943.006 263.821 942.669 262.897L938.183 271.621C938.668 272.298 939.335 272.636 940.183 272.636Z" fill="url(#paint57_linear_122_130)"/>
<path d="M941.396 294.784H944.366V295.818H936.667V294.784H940.103V283.816L936.829 285.709L936.263 284.831L940.305 282.411H941.396V294.784Z" fill="url(#paint58_linear_122_130)"/>
<path d="M941.396 317.088H944.366V318.123H936.667V317.088H940.103V306.12L936.829 308.013L936.263 307.135L940.305 304.715H941.396V317.088Z" fill="url(#paint59_linear_122_130)"/>
<path d="M977.711 81.4777C979.153 81.4777 980.244 82.0696 980.985 83.2536C981.739 84.4246 982.117 86.129 982.117 88.3669C982.117 90.6047 981.739 92.3156 980.985 93.4996C980.244 94.6836 979.153 95.2756 977.711 95.2756C976.283 95.2756 975.192 94.6836 974.438 93.4996C973.683 92.3156 973.306 90.6047 973.306 88.3669C973.306 86.142 973.683 84.4376 974.438 83.2536C975.192 82.0696 976.283 81.4777 977.711 81.4777ZM974.741 88.3669C974.741 89.9542 974.889 91.1967 975.186 92.0945L979.672 83.4488C979.2 82.8373 978.547 82.5315 977.711 82.5315C976.782 82.5315 976.054 83.0129 975.529 83.9757C975.004 84.9255 974.741 86.3892 974.741 88.3669ZM977.711 94.2022C978.654 94.2022 979.389 93.7273 979.914 92.7775C980.439 91.8147 980.702 90.3445 980.702 88.3669C980.702 86.6885 980.534 85.3874 980.197 84.4636L975.711 93.1874C976.196 93.8639 976.863 94.2022 977.711 94.2022Z" fill="url(#paint60_linear_122_130)"/>
<path d="M978.924 116.35H981.894V117.385H974.195V116.35H977.631V105.382L974.357 107.275L973.791 106.397L977.833 103.977H978.924V116.35Z" fill="url(#paint61_linear_122_130)"/>
<path d="M977.711 126.086C979.153 126.086 980.244 126.678 980.985 127.862C981.739 129.033 982.117 130.737 982.117 132.975C982.117 135.213 981.739 136.924 980.985 138.108C980.244 139.292 979.153 139.884 977.711 139.884C976.283 139.884 975.192 139.292 974.438 138.108C973.683 136.924 973.306 135.213 973.306 132.975C973.306 130.75 973.683 129.046 974.438 127.862C975.192 126.678 976.283 126.086 977.711 126.086ZM974.741 132.975C974.741 134.563 974.889 135.805 975.186 136.703L979.672 128.057C979.2 127.446 978.547 127.14 977.711 127.14C976.782 127.14 976.054 127.621 975.529 128.584C975.004 129.534 974.741 130.998 974.741 132.975ZM977.711 138.811C978.654 138.811 979.389 138.336 979.914 137.386C980.439 136.423 980.702 134.953 980.702 132.975C980.702 131.297 980.534 129.996 980.197 129.072L975.711 137.796C976.196 138.472 976.863 138.811 977.711 138.811Z" fill="url(#paint62_linear_122_130)"/>
<path d="M977.711 148.39C979.153 148.39 980.244 148.982 980.985 150.166C981.739 151.337 982.117 153.042 982.117 155.279C982.117 157.517 981.739 159.228 980.985 160.412C980.244 161.596 979.153 162.188 977.711 162.188C976.283 162.188 975.192 161.596 974.438 160.412C973.683 159.228 973.306 157.517 973.306 155.279C973.306 153.055 973.683 151.35 974.438 150.166C975.192 148.982 976.283 148.39 977.711 148.39ZM974.741 155.279C974.741 156.867 974.889 158.109 975.186 159.007L979.672 150.361C979.2 149.75 978.547 149.444 977.711 149.444C976.782 149.444 976.054 149.926 975.529 150.888C975.004 151.838 974.741 153.302 974.741 155.279ZM977.711 161.115C978.654 161.115 979.389 160.64 979.914 159.69C980.439 158.727 980.702 157.257 980.702 155.279C980.702 153.601 980.534 152.3 980.197 151.376L975.711 160.1C976.196 160.777 976.863 161.115 977.711 161.115Z" fill="url(#paint63_linear_122_130)"/>
<path d="M978.924 183.263H981.894V184.297H974.195V183.263H977.631V172.295L974.357 174.188L973.791 173.31L977.833 170.89H978.924V183.263Z" fill="url(#paint64_linear_122_130)"/>
<path d="M977.711 192.999C979.153 192.999 980.244 193.591 980.985 194.775C981.739 195.946 982.117 197.65 982.117 199.888C982.117 202.126 981.739 203.837 980.985 205.021C980.244 206.205 979.153 206.797 977.711 206.797C976.283 206.797 975.192 206.205 974.438 205.021C973.683 203.837 973.306 202.126 973.306 199.888C973.306 197.663 973.683 195.959 974.438 194.775C975.192 193.591 976.283 192.999 977.711 192.999ZM974.741 199.888C974.741 201.475 974.889 202.718 975.186 203.615L979.672 194.97C979.2 194.358 978.547 194.053 977.711 194.053C976.782 194.053 976.054 194.534 975.529 195.497C975.004 196.447 974.741 197.91 974.741 199.888ZM977.711 205.723C978.654 205.723 979.389 205.248 979.914 204.299C980.439 203.336 980.702 201.866 980.702 199.888C980.702 198.21 980.534 196.908 980.197 195.985L975.711 204.708C976.196 205.385 976.863 205.723 977.711 205.723Z" fill="url(#paint65_linear_122_130)"/>
<path d="M978.924 227.871H981.894V228.906H974.195V227.871H977.631V216.903L974.357 218.796L973.791 217.918L977.833 215.498H978.924V227.871Z" fill="url(#paint66_linear_122_130)"/>
<path d="M977.711 237.607C979.153 237.607 980.244 238.199 980.985 239.383C981.739 240.554 982.117 242.258 982.117 244.496C982.117 246.734 981.739 248.445 980.985 249.629C980.244 250.813 979.153 251.405 977.711 251.405C976.283 251.405 975.192 250.813 974.438 249.629C973.683 248.445 973.306 246.734 973.306 244.496C973.306 242.271 973.683 240.567 974.438 239.383C975.192 238.199 976.283 237.607 977.711 237.607ZM974.741 244.496C974.741 246.084 974.889 247.326 975.186 248.224L979.672 239.578C979.2 238.967 978.547 238.661 977.711 238.661C976.782 238.661 976.054 239.142 975.529 240.105C975.004 241.055 974.741 242.519 974.741 244.496ZM977.711 250.332C978.654 250.332 979.389 249.857 979.914 248.907C980.439 247.944 980.702 246.474 980.702 244.496C980.702 242.818 980.534 241.517 980.197 240.593L975.711 249.317C976.196 249.993 976.863 250.332 977.711 250.332Z" fill="url(#paint67_linear_122_130)"/>
<path d="M977.711 259.911C979.153 259.911 980.244 260.503 980.985 261.687C981.739 262.858 982.117 264.563 982.117 266.801C982.117 269.038 981.739 270.749 980.985 271.933C980.244 273.117 979.153 273.709 977.711 273.709C976.283 273.709 975.192 273.117 974.438 271.933C973.683 270.749 973.306 269.038 973.306 266.801C973.306 264.576 973.683 262.871 974.438 261.687C975.192 260.503 976.283 259.911 977.711 259.911ZM974.741 266.801C974.741 268.388 974.889 269.63 975.186 270.528L979.672 261.882C979.2 261.271 978.547 260.965 977.711 260.965C976.782 260.965 976.054 261.447 975.529 262.409C975.004 263.359 974.741 264.823 974.741 266.801ZM977.711 272.636C978.654 272.636 979.389 272.161 979.914 271.211C980.439 270.248 980.702 268.778 980.702 266.801C980.702 265.122 980.534 263.821 980.197 262.897L975.711 271.621C976.196 272.298 976.863 272.636 977.711 272.636Z" fill="url(#paint68_linear_122_130)"/>
<path d="M978.924 294.784H981.894V295.818H974.195V294.784H977.631V283.816L974.357 285.709L973.791 284.831L977.833 282.411H978.924V294.784Z" fill="url(#paint69_linear_122_130)"/>
<path d="M977.711 304.52C979.153 304.52 980.244 305.112 980.985 306.296C981.739 307.467 982.117 309.171 982.117 311.409C982.117 313.647 981.739 315.358 980.985 316.542C980.244 317.726 979.153 318.318 977.711 318.318C976.283 318.318 975.192 317.726 974.438 316.542C973.683 315.358 973.306 313.647 973.306 311.409C973.306 309.184 973.683 307.48 974.438 306.296C975.192 305.112 976.283 304.52 977.711 304.52ZM974.741 311.409C974.741 312.996 974.889 314.239 975.186 315.137L979.672 306.491C979.2 305.879 978.547 305.574 977.711 305.574C976.782 305.574 976.054 306.055 975.529 307.018C975.004 307.968 974.741 309.431 974.741 311.409ZM977.711 317.244C978.654 317.244 979.389 316.769 979.914 315.82C980.439 314.857 980.702 313.387 980.702 311.409C980.702 309.731 980.534 308.429 980.197 307.506L975.711 316.229C976.196 316.906 976.863 317.244 977.711 317.244Z" fill="url(#paint70_linear_122_130)"/>
<path d="M978.924 339.392H981.894V340.427H974.195V339.392H977.631V328.424L974.357 330.317L973.791 329.439L977.833 327.019H978.924V339.392Z" fill="url(#paint71_linear_122_130)"/>
<path d="M978.924 361.697H981.894V362.731H974.195V361.697H977.631V350.729L974.357 352.622L973.791 351.743L977.833 349.323H978.924V361.697Z" fill="url(#paint72_linear_122_130)"/>
<path d="M921.419 103.782C922.861 103.782 923.952 104.374 924.693 105.558C925.447 106.729 925.825 108.433 925.825 110.671C925.825 112.909 925.447 114.62 924.693 115.804C923.952 116.988 922.861 117.58 921.419 117.58C919.991 117.58 918.9 116.988 918.146 115.804C917.391 114.62 917.014 112.909 917.014 110.671C917.014 108.446 917.391 106.742 918.146 105.558C918.9 104.374 919.991 103.782 921.419 103.782ZM918.449 110.671C918.449 112.258 918.597 113.501 918.893 114.399L923.379 105.753C922.908 105.141 922.255 104.836 921.419 104.836C920.49 104.836 919.762 105.317 919.237 106.28C918.712 107.23 918.449 108.693 918.449 110.671ZM921.419 116.506C922.362 116.506 923.097 116.032 923.622 115.082C924.147 114.119 924.41 112.649 924.41 110.671C924.41 108.993 924.242 107.692 923.905 106.768L919.419 115.492C919.904 116.168 920.571 116.506 921.419 116.506Z" fill="url(#paint73_linear_122_130)"/>
<path d="M921.419 126.086C922.861 126.086 923.952 126.678 924.693 127.862C925.447 129.033 925.825 130.737 925.825 132.975C925.825 135.213 925.447 136.924 924.693 138.108C923.952 139.292 922.861 139.884 921.419 139.884C919.991 139.884 918.9 139.292 918.146 138.108C917.391 136.924 917.014 135.213 917.014 132.975C917.014 130.75 917.391 129.046 918.146 127.862C918.9 126.678 919.991 126.086 921.419 126.086ZM918.449 132.975C918.449 134.563 918.597 135.805 918.893 136.703L923.379 128.057C922.908 127.446 922.255 127.14 921.419 127.14C920.49 127.14 919.762 127.621 919.237 128.584C918.712 129.534 918.449 130.998 918.449 132.975ZM921.419 138.811C922.362 138.811 923.097 138.336 923.622 137.386C924.147 136.423 924.41 134.953 924.41 132.975C924.41 131.297 924.242 129.996 923.905 129.072L919.419 137.796C919.904 138.472 920.571 138.811 921.419 138.811Z" fill="url(#paint74_linear_122_130)"/>
<path d="M922.632 160.959H925.602V161.993H917.903V160.959H921.339V149.991L918.065 151.884L917.499 151.005L921.541 148.585H922.632V160.959Z" fill="url(#paint75_linear_122_130)"/>
<path d="M921.419 170.694C922.861 170.694 923.952 171.286 924.693 172.47C925.447 173.641 925.825 175.346 925.825 177.584C925.825 179.822 925.447 181.532 924.693 182.716C923.952 183.9 922.861 184.492 921.419 184.492C919.991 184.492 918.9 183.9 918.146 182.716C917.391 181.532 917.014 179.822 917.014 177.584C917.014 175.359 917.391 173.654 918.146 172.47C918.9 171.286 919.991 170.694 921.419 170.694ZM918.449 177.584C918.449 179.171 918.597 180.414 918.893 181.311L923.379 172.666C922.908 172.054 922.255 171.748 921.419 171.748C920.49 171.748 919.762 172.23 919.237 173.193C918.712 174.142 918.449 175.606 918.449 177.584ZM921.419 183.419C922.362 183.419 923.097 182.944 923.622 181.994C924.147 181.032 924.41 179.561 924.41 177.584C924.41 175.905 924.242 174.604 923.905 173.68L919.419 182.404C919.904 183.081 920.571 183.419 921.419 183.419Z" fill="url(#paint76_linear_122_130)"/>
<path d="M922.632 205.567H925.602V206.601H917.903V205.567H921.339V194.599L918.065 196.492L917.499 195.614L921.541 193.194H922.632V205.567Z" fill="url(#paint77_linear_122_130)"/>
<path d="M922.632 227.871H925.602V228.906H917.903V227.871H921.339V216.903L918.065 218.796L917.499 217.918L921.541 215.498H922.632V227.871Z" fill="url(#paint78_linear_122_130)"/>
<path d="M960.16 71.7419H963.13V72.7762H955.431V71.7419H958.867V60.7738L955.593 62.6668L955.027 61.7886L959.069 59.3686H960.16V71.7419Z" fill="url(#paint79_linear_122_130)"/>
<path d="M958.947 81.4777C960.389 81.4777 961.48 82.0696 962.221 83.2536C962.975 84.4246 963.353 86.129 963.353 88.3669C963.353 90.6047 962.975 92.3156 962.221 93.4996C961.48 94.6836 960.389 95.2756 958.947 95.2756C957.519 95.2756 956.428 94.6836 955.674 93.4996C954.919 92.3156 954.542 90.6047 954.542 88.3669C954.542 86.142 954.919 84.4376 955.674 83.2536C956.428 82.0696 957.519 81.4777 958.947 81.4777ZM955.977 88.3669C955.977 89.9542 956.125 91.1967 956.422 92.0945L960.908 83.4488C960.436 82.8373 959.783 82.5315 958.947 82.5315C958.018 82.5315 957.29 83.0129 956.765 83.9757C956.24 84.9255 955.977 86.3892 955.977 88.3669ZM958.947 94.2022C959.89 94.2022 960.625 93.7273 961.15 92.7775C961.675 91.8147 961.938 90.3445 961.938 88.3669C961.938 86.6885 961.77 85.3874 961.433 84.4636L956.947 93.1874C957.432 93.8639 958.099 94.2022 958.947 94.2022Z" fill="url(#paint80_linear_122_130)"/>
<path d="M960.16 116.35H963.13V117.385H955.431V116.35H958.867V105.382L955.593 107.275L955.027 106.397L959.069 103.977H960.16V116.35Z" fill="url(#paint81_linear_122_130)"/>
<path d="M960.16 138.654H963.13V139.689H955.431V138.654H958.867V127.686L955.593 129.579L955.027 128.701L959.069 126.281H960.16V138.654Z" fill="url(#paint82_linear_122_130)"/>
<path d="M958.947 148.39C960.389 148.39 961.48 148.982 962.221 150.166C962.975 151.337 963.353 153.042 963.353 155.279C963.353 157.517 962.975 159.228 962.221 160.412C961.48 161.596 960.389 162.188 958.947 162.188C957.519 162.188 956.428 161.596 955.674 160.412C954.919 159.228 954.542 157.517 954.542 155.279C954.542 153.055 954.919 151.35 955.674 150.166C956.428 148.982 957.519 148.39 958.947 148.39ZM955.977 155.279C955.977 156.867 956.125 158.109 956.422 159.007L960.908 150.361C960.436 149.75 959.783 149.444 958.947 149.444C958.018 149.444 957.29 149.926 956.765 150.888C956.24 151.838 955.977 153.302 955.977 155.279ZM958.947 161.115C959.89 161.115 960.625 160.64 961.15 159.69C961.675 158.727 961.938 157.257 961.938 155.279C961.938 153.601 961.77 152.3 961.433 151.376L956.947 160.1C957.432 160.777 958.099 161.115 958.947 161.115Z" fill="url(#paint83_linear_122_130)"/>
<path d="M960.16 183.263H963.13V184.297H955.431V183.263H958.867V172.295L955.593 174.188L955.027 173.31L959.069 170.89H960.16V183.263Z" fill="url(#paint84_linear_122_130)"/>
<path d="M960.16 205.567H963.13V206.601H955.431V205.567H958.867V194.599L955.593 196.492L955.027 195.614L959.069 193.194H960.16V205.567Z" fill="url(#paint85_linear_122_130)"/>
<path d="M958.947 215.303C960.389 215.303 961.48 215.895 962.221 217.079C962.975 218.25 963.353 219.954 963.353 222.192C963.353 224.43 962.975 226.141 962.221 227.325C961.48 228.509 960.389 229.101 958.947 229.101C957.519 229.101 956.428 228.509 955.674 227.325C954.919 226.141 954.542 224.43 954.542 222.192C954.542 219.967 954.919 218.263 955.674 217.079C956.428 215.895 957.519 215.303 958.947 215.303ZM955.977 222.192C955.977 223.779 956.125 225.022 956.422 225.92L960.908 217.274C960.436 216.663 959.783 216.357 958.947 216.357C958.018 216.357 957.29 216.838 956.765 217.801C956.24 218.751 955.977 220.214 955.977 222.192ZM958.947 228.027C959.89 228.027 960.625 227.553 961.15 226.603C961.675 225.64 961.938 224.17 961.938 222.192C961.938 220.514 961.77 219.213 961.433 218.289L956.947 227.013C957.432 227.689 958.099 228.027 958.947 228.027Z" fill="url(#paint86_linear_122_130)"/>
<path d="M960.16 250.176H963.13V251.21H955.431V250.176H958.867V239.207L955.593 241.101L955.027 240.222L959.069 237.802H960.16V250.176Z" fill="url(#paint87_linear_122_130)"/>
<path d="M958.947 259.911C960.389 259.911 961.48 260.503 962.221 261.687C962.975 262.858 963.353 264.563 963.353 266.801C963.353 269.038 962.975 270.749 962.221 271.933C961.48 273.117 960.389 273.709 958.947 273.709C957.519 273.709 956.428 273.117 955.674 271.933C954.919 270.749 954.542 269.038 954.542 266.801C954.542 264.576 954.919 262.871 955.674 261.687C956.428 260.503 957.519 259.911 958.947 259.911ZM955.977 266.801C955.977 268.388 956.125 269.63 956.422 270.528L960.908 261.882C960.436 261.271 959.783 260.965 958.947 260.965C958.018 260.965 957.29 261.447 956.765 262.409C956.24 263.359 955.977 264.823 955.977 266.801ZM958.947 272.636C959.89 272.636 960.625 272.161 961.15 271.211C961.675 270.248 961.938 268.778 961.938 266.801C961.938 265.122 961.77 263.821 961.433 262.897L956.947 271.621C957.432 272.298 958.099 272.636 958.947 272.636Z" fill="url(#paint88_linear_122_130)"/>
<path d="M996.476 59.1734C997.917 59.1734 999.008 59.7654 999.749 60.9494C1000.5 62.1204 1000.88 63.8248 1000.88 66.0627C1000.88 68.3005 1000.5 70.0114 999.749 71.1954C999.008 72.3794 997.917 72.9714 996.476 72.9714C995.048 72.9714 993.956 72.3794 993.202 71.1954C992.448 70.0114 992.07 68.3005 992.07 66.0627C992.07 63.8378 992.448 62.1334 993.202 60.9494C993.956 59.7654 995.048 59.1734 996.476 59.1734ZM993.505 66.0627C993.505 67.65 993.653 68.8925 993.95 69.7902L998.436 61.1446C997.964 60.5331 997.311 60.2273 996.476 60.2273C995.546 60.2273 994.819 60.7087 994.293 61.6715C993.768 62.6213 993.505 64.085 993.505 66.0627ZM996.476 71.898C997.419 71.898 998.153 71.4231 998.678 70.4733C999.204 69.5105 999.466 68.0403 999.466 66.0627C999.466 64.3843 999.298 63.0832 998.961 62.1594L994.475 70.8832C994.96 71.5597 995.627 71.898 996.476 71.898Z" fill="url(#paint89_linear_122_130)"/>
<path d="M997.688 94.0461H1000.66V95.0804H992.959V94.0461H996.395V83.078L993.121 84.9711L992.555 84.0928L996.597 81.6728H997.688V94.0461Z" fill="url(#paint90_linear_122_130)"/>
<path d="M997.688 116.35H1000.66V117.385H992.959V116.35H996.395V105.382L993.121 107.275L992.555 106.397L996.597 103.977H997.688V116.35Z" fill="url(#paint91_linear_122_130)"/>
<path d="M996.476 126.086C997.917 126.086 999.008 126.678 999.749 127.862C1000.5 129.033 1000.88 130.737 1000.88 132.975C1000.88 135.213 1000.5 136.924 999.749 138.108C999.008 139.292 997.917 139.884 996.476 139.884C995.048 139.884 993.956 139.292 993.202 138.108C992.448 136.924 992.07 135.213 992.07 132.975C992.07 130.75 992.448 129.046 993.202 127.862C993.956 126.678 995.048 126.086 996.476 126.086ZM993.505 132.975C993.505 134.563 993.653 135.805 993.95 136.703L998.436 128.057C997.964 127.446 997.311 127.14 996.476 127.14C995.546 127.14 994.819 127.621 994.293 128.584C993.768 129.534 993.505 130.998 993.505 132.975ZM996.476 138.811C997.419 138.811 998.153 138.336 998.678 137.386C999.204 136.423 999.466 134.953 999.466 132.975C999.466 131.297 999.298 129.996 998.961 129.072L994.475 137.796C994.96 138.472 995.627 138.811 996.476 138.811Z" fill="url(#paint92_linear_122_130)"/>
<path d="M996.476 148.39C997.917 148.39 999.008 148.982 999.749 150.166C1000.5 151.337 1000.88 153.042 1000.88 155.279C1000.88 157.517 1000.5 159.228 999.749 160.412C999.008 161.596 997.917 162.188 996.476 162.188C995.048 162.188 993.956 161.596 993.202 160.412C992.448 159.228 992.07 157.517 992.07 155.279C992.07 153.055 992.448 151.35 993.202 150.166C993.956 148.982 995.048 148.39 996.476 148.39ZM993.505 155.279C993.505 156.867 993.653 158.109 993.95 159.007L998.436 150.361C997.964 149.75 997.311 149.444 996.476 149.444C995.546 149.444 994.819 149.926 994.293 150.888C993.768 151.838 993.505 153.302 993.505 155.279ZM996.476 161.115C997.419 161.115 998.153 160.64 998.678 159.69C999.204 158.727 999.466 157.257 999.466 155.279C999.466 153.601 999.298 152.3 998.961 151.376L994.475 160.1C994.96 160.777 995.627 161.115 996.476 161.115Z" fill="url(#paint93_linear_122_130)"/>
</g>
</g>
<defs>
<filter id="filter0_f_122_130" x="-549.19" y="-643.19" width="2155.38" height="1485.37" filterUnits="userSpaceOnUse" color-interpolation-filters="sRGB">
<feFlood flood-opacity="0" result="BackgroundImageFix"/>
<feBlend mode="normal" in="SourceGraphic" in2="BackgroundImageFix" result="shape"/>
<feGaussianBlur stdDeviation="200.095" result="effect1_foregroundBlur_122_130"/>
</filter>
<linearGradient id="paint0_linear_122_130" x1="63.6976" y1="330.438" x2="63.6976" y2="635.144" gradientUnits="userSpaceOnUse">
<stop stop-color="#F7DD43"/>
<stop offset="1" stop-color="#F7DD43" stop-opacity="0"/>
</linearGradient>
<linearGradient id="paint1_linear_122_130" x1="63.6976" y1="330.438" x2="63.6976" y2="635.144" gradientUnits="userSpaceOnUse">
<stop stop-color="#F7DD43"/>
<stop offset="1" stop-color="#F7DD43" stop-opacity="0"/>
</linearGradient>
<linearGradient id="paint2_linear_122_130" x1="63.6976" y1="330.438" x2="63.6976" y2="635.144" gradientUnits="userSpaceOnUse">
<stop stop-color="#F7DD43"/>
<stop offset="1" stop-color="#F7DD43" stop-opacity="0"/>
</linearGradient>
<linearGradient id="paint3_linear_122_130" x1="63.6976" y1="330.438" x2="63.6976" y2="635.144" gradientUnits="userSpaceOnUse">
<stop stop-color="#F7DD43"/>
<stop offset="1" stop-color="#F7DD43" stop-opacity="0"/>
</linearGradient>
<linearGradient id="paint4_linear_122_130" x1="63.6976" y1="330.438" x2="63.6976" y2="635.144" gradientUnits="userSpaceOnUse">
<stop stop-color="#F7DD43"/>
<stop offset="1" stop-color="#F7DD43" stop-opacity="0"/>
</linearGradient>
<linearGradient id="paint5_linear_122_130" x1="63.6976" y1="330.438" x2="63.6976" y2="635.144" gradientUnits="userSpaceOnUse">
<stop stop-color="#F7DD43"/>
<stop offset="1" stop-color="#F7DD43" stop-opacity="0"/>
</linearGradient>
<linearGradient id="paint6_linear_122_130" x1="63.6976" y1="330.438" x2="63.6976" y2="635.144" gradientUnits="userSpaceOnUse">
<stop stop-color="#F7DD43"/>
<stop offset="1" stop-color="#F7DD43" stop-opacity="0"/>
</linearGradient>
<linearGradient id="paint7_linear_122_130" x1="63.6976" y1="330.438" x2="63.6976" y2="635.144" gradientUnits="userSpaceOnUse">
<stop stop-color="#F7DD43"/>
<stop offset="1" stop-color="#F7DD43" stop-opacity="0"/>
</linearGradient>
<linearGradient id="paint8_linear_122_130" x1="63.6976" y1="330.438" x2="63.6976" y2="635.144" gradientUnits="userSpaceOnUse">
<stop stop-color="#F7DD43"/>
<stop offset="1" stop-color="#F7DD43" stop-opacity="0"/>
</linearGradient>
<linearGradient id="paint9_linear_122_130" x1="63.6976" y1="330.438" x2="63.6976" y2="635.144" gradientUnits="userSpaceOnUse">
<stop stop-color="#F7DD43"/>
<stop offset="1" stop-color="#F7DD43" stop-opacity="0"/>
</linearGradient>
<linearGradient id="paint10_linear_122_130" x1="63.6976" y1="330.438" x2="63.6976" y2="635.144" gradientUnits="userSpaceOnUse">
<stop stop-color="#F7DD43"/>
<stop offset="1" stop-color="#F7DD43" stop-opacity="0"/>
</linearGradient>
<linearGradient id="paint11_linear_122_130" x1="63.6976" y1="330.438" x2="63.6976" y2="635.144" gradientUnits="userSpaceOnUse">
<stop stop-color="#F7DD43"/>
<stop offset="1" stop-color="#F7DD43" stop-opacity="0"/>
</linearGradient>
<linearGradient id="paint12_linear_122_130" x1="63.6976" y1="330.438" x2="63.6976" y2="635.144" gradientUnits="userSpaceOnUse">
<stop stop-color="#F7DD43"/>
<stop offset="1" stop-color="#F7DD43" stop-opacity="0"/>
</linearGradient>
<linearGradient id="paint13_linear_122_130" x1="63.6976" y1="330.438" x2="63.6976" y2="635.144" gradientUnits="userSpaceOnUse">
<stop stop-color="#F7DD43"/>
<stop offset="1" stop-color="#F7DD43" stop-opacity="0"/>
</linearGradient>
<linearGradient id="paint14_linear_122_130" x1="63.6976" y1="330.438" x2="63.6976" y2="635.144" gradientUnits="userSpaceOnUse">
<stop stop-color="#F7DD43"/>
<stop offset="1" stop-color="#F7DD43" stop-opacity="0"/>
</linearGradient>
<linearGradient id="paint15_linear_122_130" x1="63.6976" y1="330.438" x2="63.6976" y2="635.144" gradientUnits="userSpaceOnUse">
<stop stop-color="#F7DD43"/>
<stop offset="1" stop-color="#F7DD43" stop-opacity="0"/>
</linearGradient>
<linearGradient id="paint16_linear_122_130" x1="63.6976" y1="330.438" x2="63.6976" y2="635.144" gradientUnits="userSpaceOnUse">
<stop stop-color="#F7DD43"/>
<stop offset="1" stop-color="#F7DD43" stop-opacity="0"/>
</linearGradient>
<linearGradient id="paint17_linear_122_130" x1="63.6976" y1="330.438" x2="63.6976" y2="635.144" gradientUnits="userSpaceOnUse">
<stop stop-color="#F7DD43"/>
<stop offset="1" stop-color="#F7DD43" stop-opacity="0"/>
</linearGradient>
<linearGradient id="paint18_linear_122_130" x1="63.6976" y1="330.438" x2="63.6976" y2="635.144" gradientUnits="userSpaceOnUse">
<stop stop-color="#F7DD43"/>
<stop offset="1" stop-color="#F7DD43" stop-opacity="0"/>
</linearGradient>
<linearGradient id="paint19_linear_122_130" x1="63.6976" y1="330.438" x2="63.6976" y2="635.144" gradientUnits="userSpaceOnUse">
<stop stop-color="#F7DD43"/>
<stop offset="1" stop-color="#F7DD43" stop-opacity="0"/>
</linearGradient>
<linearGradient id="paint20_linear_122_130" x1="63.6976" y1="330.438" x2="63.6976" y2="635.144" gradientUnits="userSpaceOnUse">
<stop stop-color="#F7DD43"/>
<stop offset="1" stop-color="#F7DD43" stop-opacity="0"/>
</linearGradient>
<linearGradient id="paint21_linear_122_130" x1="63.6976" y1="330.438" x2="63.6976" y2="635.144" gradientUnits="userSpaceOnUse">
<stop stop-color="#F7DD43"/>
<stop offset="1" stop-color="#F7DD43" stop-opacity="0"/>
</linearGradient>
<linearGradient id="paint22_linear_122_130" x1="63.6976" y1="330.438" x2="63.6976" y2="635.144" gradientUnits="userSpaceOnUse">
<stop stop-color="#F7DD43"/>
<stop offset="1" stop-color="#F7DD43" stop-opacity="0"/>
</linearGradient>
<linearGradient id="paint23_linear_122_130" x1="63.6976" y1="330.438" x2="63.6976" y2="635.144" gradientUnits="userSpaceOnUse">
<stop stop-color="#F7DD43"/>
<stop offset="1" stop-color="#F7DD43" stop-opacity="0"/>
</linearGradient>
<linearGradient id="paint24_linear_122_130" x1="63.6976" y1="330.438" x2="63.6976" y2="635.144" gradientUnits="userSpaceOnUse">
<stop stop-color="#F7DD43"/>
<stop offset="1" stop-color="#F7DD43" stop-opacity="0"/>
</linearGradient>
<linearGradient id="paint25_linear_122_130" x1="63.6976" y1="330.438" x2="63.6976" y2="635.144" gradientUnits="userSpaceOnUse">
<stop stop-color="#F7DD43"/>
<stop offset="1" stop-color="#F7DD43" stop-opacity="0"/>
</linearGradient>
<linearGradient id="paint26_linear_122_130" x1="63.6976" y1="330.438" x2="63.6976" y2="635.144" gradientUnits="userSpaceOnUse">
<stop stop-color="#F7DD43"/>
<stop offset="1" stop-color="#F7DD43" stop-opacity="0"/>
</linearGradient>
<linearGradient id="paint27_linear_122_130" x1="63.6976" y1="330.438" x2="63.6976" y2="635.144" gradientUnits="userSpaceOnUse">
<stop stop-color="#F7DD43"/>
<stop offset="1" stop-color="#F7DD43" stop-opacity="0"/>
</linearGradient>
<linearGradient id="paint28_linear_122_130" x1="63.6976" y1="330.438" x2="63.6976" y2="635.144" gradientUnits="userSpaceOnUse">
<stop stop-color="#F7DD43"/>
<stop offset="1" stop-color="#F7DD43" stop-opacity="0"/>
</linearGradient>
<linearGradient id="paint29_linear_122_130" x1="63.6976" y1="330.438" x2="63.6976" y2="635.144" gradientUnits="userSpaceOnUse">
<stop stop-color="#F7DD43"/>
<stop offset="1" stop-color="#F7DD43" stop-opacity="0"/>
</linearGradient>
<linearGradient id="paint30_linear_122_130" x1="63.6976" y1="330.438" x2="63.6976" y2="635.144" gradientUnits="userSpaceOnUse">
<stop stop-color="#F7DD43"/>
<stop offset="1" stop-color="#F7DD43" stop-opacity="0"/>
</linearGradient>
<linearGradient id="paint31_linear_122_130" x1="63.6976" y1="330.438" x2="63.6976" y2="635.144" gradientUnits="userSpaceOnUse">
<stop stop-color="#F7DD43"/>
<stop offset="1" stop-color="#F7DD43" stop-opacity="0"/>
</linearGradient>
<linearGradient id="paint32_linear_122_130" x1="63.6976" y1="330.438" x2="63.6976" y2="635.144" gradientUnits="userSpaceOnUse">
<stop stop-color="#F7DD43"/>
<stop offset="1" stop-color="#F7DD43" stop-opacity="0"/>
</linearGradient>
<linearGradient id="paint33_linear_122_130" x1="63.6976" y1="330.438" x2="63.6976" y2="635.144" gradientUnits="userSpaceOnUse">
<stop stop-color="#F7DD43"/>
<stop offset="1" stop-color="#F7DD43" stop-opacity="0"/>
</linearGradient>
<linearGradient id="paint34_linear_122_130" x1="63.6976" y1="330.438" x2="63.6976" y2="635.144" gradientUnits="userSpaceOnUse">
<stop stop-color="#F7DD43"/>
<stop offset="1" stop-color="#F7DD43" stop-opacity="0"/>
</linearGradient>
<linearGradient id="paint35_linear_122_130" x1="63.6976" y1="330.438" x2="63.6976" y2="635.144" gradientUnits="userSpaceOnUse">
<stop stop-color="#F7DD43"/>
<stop offset="1" stop-color="#F7DD43" stop-opacity="0"/>
</linearGradient>
<linearGradient id="paint36_linear_122_130" x1="63.6976" y1="330.438" x2="63.6976" y2="635.144" gradientUnits="userSpaceOnUse">
<stop stop-color="#F7DD43"/>
<stop offset="1" stop-color="#F7DD43" stop-opacity="0"/>
</linearGradient>
<linearGradient id="paint37_linear_122_130" x1="63.6976" y1="330.438" x2="63.6976" y2="635.144" gradientUnits="userSpaceOnUse">
<stop stop-color="#F7DD43"/>
<stop offset="1" stop-color="#F7DD43" stop-opacity="0"/>
</linearGradient>
<linearGradient id="paint38_linear_122_130" x1="63.6976" y1="330.438" x2="63.6976" y2="635.144" gradientUnits="userSpaceOnUse">
<stop stop-color="#F7DD43"/>
<stop offset="1" stop-color="#F7DD43" stop-opacity="0"/>
</linearGradient>
<linearGradient id="paint39_linear_122_130" x1="63.6976" y1="330.438" x2="63.6976" y2="635.144" gradientUnits="userSpaceOnUse">
<stop stop-color="#F7DD43"/>
<stop offset="1" stop-color="#F7DD43" stop-opacity="0"/>
</linearGradient>
<linearGradient id="paint40_linear_122_130" x1="63.6976" y1="330.438" x2="63.6976" y2="635.144" gradientUnits="userSpaceOnUse">
<stop stop-color="#F7DD43"/>
<stop offset="1" stop-color="#F7DD43" stop-opacity="0"/>
</linearGradient>
<linearGradient id="paint41_linear_122_130" x1="63.6976" y1="330.438" x2="63.6976" y2="635.144" gradientUnits="userSpaceOnUse">
<stop stop-color="#F7DD43"/>
<stop offset="1" stop-color="#F7DD43" stop-opacity="0"/>
</linearGradient>
<linearGradient id="paint42_linear_122_130" x1="63.6976" y1="330.438" x2="63.6976" y2="635.144" gradientUnits="userSpaceOnUse">
<stop stop-color="#F7DD43"/>
<stop offset="1" stop-color="#F7DD43" stop-opacity="0"/>
</linearGradient>
<linearGradient id="paint43_linear_122_130" x1="63.6976" y1="330.438" x2="63.6976" y2="635.144" gradientUnits="userSpaceOnUse">
<stop stop-color="#F7DD43"/>
<stop offset="1" stop-color="#F7DD43" stop-opacity="0"/>
</linearGradient>
<linearGradient id="paint44_linear_122_130" x1="63.6976" y1="330.438" x2="63.6976" y2="635.144" gradientUnits="userSpaceOnUse">
<stop stop-color="#F7DD43"/>
<stop offset="1" stop-color="#F7DD43" stop-opacity="0"/>
</linearGradient>
<linearGradient id="paint45_linear_122_130" x1="63.6976" y1="330.438" x2="63.6976" y2="635.144" gradientUnits="userSpaceOnUse">
<stop stop-color="#F7DD43"/>
<stop offset="1" stop-color="#F7DD43" stop-opacity="0"/>
</linearGradient>
<linearGradient id="paint46_linear_122_130" x1="63.6976" y1="330.438" x2="63.6976" y2="635.144" gradientUnits="userSpaceOnUse">
<stop stop-color="#F7DD43"/>
<stop offset="1" stop-color="#F7DD43" stop-opacity="0"/>
</linearGradient>
<linearGradient id="paint47_linear_122_130" x1="958.947" y1="36.8692" x2="958.947" y2="329.282" gradientUnits="userSpaceOnUse">
<stop stop-color="#F7DD43"/>
<stop offset="1" stop-color="#F7DD43" stop-opacity="0"/>
</linearGradient>
<linearGradient id="paint48_linear_122_130" x1="958.947" y1="36.8692" x2="958.947" y2="329.282" gradientUnits="userSpaceOnUse">
<stop stop-color="#F7DD43"/>
<stop offset="1" stop-color="#F7DD43" stop-opacity="0"/>
</linearGradient>
<linearGradient id="paint49_linear_122_130" x1="958.947" y1="36.8692" x2="958.947" y2="329.282" gradientUnits="userSpaceOnUse">
<stop stop-color="#F7DD43"/>
<stop offset="1" stop-color="#F7DD43" stop-opacity="0"/>
</linearGradient>
<linearGradient id="paint50_linear_122_130" x1="958.947" y1="36.8692" x2="958.947" y2="329.282" gradientUnits="userSpaceOnUse">
<stop stop-color="#F7DD43"/>
<stop offset="1" stop-color="#F7DD43" stop-opacity="0"/>
</linearGradient>
<linearGradient id="paint51_linear_122_130" x1="958.947" y1="36.8692" x2="958.947" y2="329.282" gradientUnits="userSpaceOnUse">
<stop stop-color="#F7DD43"/>
<stop offset="1" stop-color="#F7DD43" stop-opacity="0"/>
</linearGradient>
<linearGradient id="paint52_linear_122_130" x1="958.947" y1="36.8692" x2="958.947" y2="329.282" gradientUnits="userSpaceOnUse">
<stop stop-color="#F7DD43"/>
<stop offset="1" stop-color="#F7DD43" stop-opacity="0"/>
</linearGradient>
<linearGradient id="paint53_linear_122_130" x1="958.947" y1="36.8692" x2="958.947" y2="329.282" gradientUnits="userSpaceOnUse">
<stop stop-color="#F7DD43"/>
<stop offset="1" stop-color="#F7DD43" stop-opacity="0"/>
</linearGradient>
<linearGradient id="paint54_linear_122_130" x1="958.947" y1="36.8692" x2="958.947" y2="329.282" gradientUnits="userSpaceOnUse">
<stop stop-color="#F7DD43"/>
<stop offset="1" stop-color="#F7DD43" stop-opacity="0"/>
</linearGradient>
<linearGradient id="paint55_linear_122_130" x1="958.947" y1="36.8692" x2="958.947" y2="329.282" gradientUnits="userSpaceOnUse">
<stop stop-color="#F7DD43"/>
<stop offset="1" stop-color="#F7DD43" stop-opacity="0"/>
</linearGradient>
<linearGradient id="paint56_linear_122_130" x1="958.947" y1="36.8692" x2="958.947" y2="329.282" gradientUnits="userSpaceOnUse">
<stop stop-color="#F7DD43"/>
<stop offset="1" stop-color="#F7DD43" stop-opacity="0"/>
</linearGradient>
<linearGradient id="paint57_linear_122_130" x1="958.947" y1="36.8692" x2="958.947" y2="329.282" gradientUnits="userSpaceOnUse">
<stop stop-color="#F7DD43"/>
<stop offset="1" stop-color="#F7DD43" stop-opacity="0"/>
</linearGradient>
<linearGradient id="paint58_linear_122_130" x1="958.947" y1="36.8692" x2="958.947" y2="329.282" gradientUnits="userSpaceOnUse">
<stop stop-color="#F7DD43"/>
<stop offset="1" stop-color="#F7DD43" stop-opacity="0"/>
</linearGradient>
<linearGradient id="paint59_linear_122_130" x1="958.947" y1="36.8692" x2="958.947" y2="329.282" gradientUnits="userSpaceOnUse">
<stop stop-color="#F7DD43"/>
<stop offset="1" stop-color="#F7DD43" stop-opacity="0"/>
</linearGradient>
<linearGradient id="paint60_linear_122_130" x1="958.947" y1="36.8692" x2="958.947" y2="329.282" gradientUnits="userSpaceOnUse">
<stop stop-color="#F7DD43"/>
<stop offset="1" stop-color="#F7DD43" stop-opacity="0"/>
</linearGradient>
<linearGradient id="paint61_linear_122_130" x1="958.947" y1="36.8692" x2="958.947" y2="329.282" gradientUnits="userSpaceOnUse">
<stop stop-color="#F7DD43"/>
<stop offset="1" stop-color="#F7DD43" stop-opacity="0"/>
</linearGradient>
<linearGradient id="paint62_linear_122_130" x1="958.947" y1="36.8692" x2="958.947" y2="329.282" gradientUnits="userSpaceOnUse">
<stop stop-color="#F7DD43"/>
<stop offset="1" stop-color="#F7DD43" stop-opacity="0"/>
</linearGradient>
<linearGradient id="paint63_linear_122_130" x1="958.947" y1="36.8692" x2="958.947" y2="329.282" gradientUnits="userSpaceOnUse">
<stop stop-color="#F7DD43"/>
<stop offset="1" stop-color="#F7DD43" stop-opacity="0"/>
</linearGradient>
<linearGradient id="paint64_linear_122_130" x1="958.947" y1="36.8692" x2="958.947" y2="329.282" gradientUnits="userSpaceOnUse">
<stop stop-color="#F7DD43"/>
<stop offset="1" stop-color="#F7DD43" stop-opacity="0"/>
</linearGradient>
<linearGradient id="paint65_linear_122_130" x1="958.947" y1="36.8692" x2="958.947" y2="329.282" gradientUnits="userSpaceOnUse">
<stop stop-color="#F7DD43"/>
<stop offset="1" stop-color="#F7DD43" stop-opacity="0"/>
</linearGradient>
<linearGradient id="paint66_linear_122_130" x1="958.947" y1="36.8692" x2="958.947" y2="329.282" gradientUnits="userSpaceOnUse">
<stop stop-color="#F7DD43"/>
<stop offset="1" stop-color="#F7DD43" stop-opacity="0"/>
</linearGradient>
<linearGradient id="paint67_linear_122_130" x1="958.947" y1="36.8692" x2="958.947" y2="329.282" gradientUnits="userSpaceOnUse">
<stop stop-color="#F7DD43"/>
<stop offset="1" stop-color="#F7DD43" stop-opacity="0"/>
</linearGradient>
<linearGradient id="paint68_linear_122_130" x1="958.947" y1="36.8692" x2="958.947" y2="329.282" gradientUnits="userSpaceOnUse">
<stop stop-color="#F7DD43"/>
<stop offset="1" stop-color="#F7DD43" stop-opacity="0"/>
</linearGradient>
<linearGradient id="paint69_linear_122_130" x1="958.947" y1="36.8692" x2="958.947" y2="329.282" gradientUnits="userSpaceOnUse">
<stop stop-color="#F7DD43"/>
<stop offset="1" stop-color="#F7DD43" stop-opacity="0"/>
</linearGradient>
<linearGradient id="paint70_linear_122_130" x1="958.947" y1="36.8692" x2="958.947" y2="329.282" gradientUnits="userSpaceOnUse">
<stop stop-color="#F7DD43"/>
<stop offset="1" stop-color="#F7DD43" stop-opacity="0"/>
</linearGradient>
<linearGradient id="paint71_linear_122_130" x1="958.947" y1="36.8692" x2="958.947" y2="329.282" gradientUnits="userSpaceOnUse">
<stop stop-color="#F7DD43"/>
<stop offset="1" stop-color="#F7DD43" stop-opacity="0"/>
</linearGradient>
<linearGradient id="paint72_linear_122_130" x1="958.947" y1="36.8692" x2="958.947" y2="329.282" gradientUnits="userSpaceOnUse">
<stop stop-color="#F7DD43"/>
<stop offset="1" stop-color="#F7DD43" stop-opacity="0"/>
</linearGradient>
<linearGradient id="paint73_linear_122_130" x1="958.947" y1="36.8692" x2="958.947" y2="329.282" gradientUnits="userSpaceOnUse">
<stop stop-color="#F7DD43"/>
<stop offset="1" stop-color="#F7DD43" stop-opacity="0"/>
</linearGradient>
<linearGradient id="paint74_linear_122_130" x1="958.947" y1="36.8692" x2="958.947" y2="329.282" gradientUnits="userSpaceOnUse">
<stop stop-color="#F7DD43"/>
<stop offset="1" stop-color="#F7DD43" stop-opacity="0"/>
</linearGradient>
<linearGradient id="paint75_linear_122_130" x1="958.947" y1="36.8692" x2="958.947" y2="329.282" gradientUnits="userSpaceOnUse">
<stop stop-color="#F7DD43"/>
<stop offset="1" stop-color="#F7DD43" stop-opacity="0"/>
</linearGradient>
<linearGradient id="paint76_linear_122_130" x1="958.947" y1="36.8692" x2="958.947" y2="329.282" gradientUnits="userSpaceOnUse">
<stop stop-color="#F7DD43"/>
<stop offset="1" stop-color="#F7DD43" stop-opacity="0"/>
</linearGradient>
<linearGradient id="paint77_linear_122_130" x1="958.947" y1="36.8692" x2="958.947" y2="329.282" gradientUnits="userSpaceOnUse">
<stop stop-color="#F7DD43"/>
<stop offset="1" stop-color="#F7DD43" stop-opacity="0"/>
</linearGradient>
<linearGradient id="paint78_linear_122_130" x1="958.947" y1="36.8692" x2="958.947" y2="329.282" gradientUnits="userSpaceOnUse">
<stop stop-color="#F7DD43"/>
<stop offset="1" stop-color="#F7DD43" stop-opacity="0"/>
</linearGradient>
<linearGradient id="paint79_linear_122_130" x1="958.947" y1="36.8692" x2="958.947" y2="329.282" gradientUnits="userSpaceOnUse">
<stop stop-color="#F7DD43"/>
<stop offset="1" stop-color="#F7DD43" stop-opacity="0"/>
</linearGradient>
<linearGradient id="paint80_linear_122_130" x1="958.947" y1="36.8692" x2="958.947" y2="329.282" gradientUnits="userSpaceOnUse">
<stop stop-color="#F7DD43"/>
<stop offset="1" stop-color="#F7DD43" stop-opacity="0"/>
</linearGradient>
<linearGradient id="paint81_linear_122_130" x1="958.947" y1="36.8692" x2="958.947" y2="329.282" gradientUnits="userSpaceOnUse">
<stop stop-color="#F7DD43"/>
<stop offset="1" stop-color="#F7DD43" stop-opacity="0"/>
</linearGradient>
<linearGradient id="paint82_linear_122_130" x1="958.947" y1="36.8692" x2="958.947" y2="329.282" gradientUnits="userSpaceOnUse">
<stop stop-color="#F7DD43"/>
<stop offset="1" stop-color="#F7DD43" stop-opacity="0"/>
</linearGradient>
<linearGradient id="paint83_linear_122_130" x1="958.947" y1="36.8692" x2="958.947" y2="329.282" gradientUnits="userSpaceOnUse">
<stop stop-color="#F7DD43"/>
<stop offset="1" stop-color="#F7DD43" stop-opacity="0"/>
</linearGradient>
<linearGradient id="paint84_linear_122_130" x1="958.947" y1="36.8692" x2="958.947" y2="329.282" gradientUnits="userSpaceOnUse">
<stop stop-color="#F7DD43"/>
<stop offset="1" stop-color="#F7DD43" stop-opacity="0"/>
</linearGradient>
<linearGradient id="paint85_linear_122_130" x1="958.947" y1="36.8692" x2="958.947" y2="329.282" gradientUnits="userSpaceOnUse">
<stop stop-color="#F7DD43"/>
<stop offset="1" stop-color="#F7DD43" stop-opacity="0"/>
</linearGradient>
<linearGradient id="paint86_linear_122_130" x1="958.947" y1="36.8692" x2="958.947" y2="329.282" gradientUnits="userSpaceOnUse">
<stop stop-color="#F7DD43"/>
<stop offset="1" stop-color="#F7DD43" stop-opacity="0"/>
</linearGradient>
<linearGradient id="paint87_linear_122_130" x1="958.947" y1="36.8692" x2="958.947" y2="329.282" gradientUnits="userSpaceOnUse">
<stop stop-color="#F7DD43"/>
<stop offset="1" stop-color="#F7DD43" stop-opacity="0"/>
</linearGradient>
<linearGradient id="paint88_linear_122_130" x1="958.947" y1="36.8692" x2="958.947" y2="329.282" gradientUnits="userSpaceOnUse">
<stop stop-color="#F7DD43"/>
<stop offset="1" stop-color="#F7DD43" stop-opacity="0"/>
</linearGradient>
<linearGradient id="paint89_linear_122_130" x1="958.947" y1="36.8692" x2="958.947" y2="329.282" gradientUnits="userSpaceOnUse">
<stop stop-color="#F7DD43"/>
<stop offset="1" stop-color="#F7DD43" stop-opacity="0"/>
</linearGradient>
<linearGradient id="paint90_linear_122_130" x1="958.947" y1="36.8692" x2="958.947" y2="329.282" gradientUnits="userSpaceOnUse">
<stop stop-color="#F7DD43"/>
<stop offset="1" stop-color="#F7DD43" stop-opacity="0"/>
</linearGradient>
<linearGradient id="paint91_linear_122_130" x1="958.947" y1="36.8692" x2="958.947" y2="329.282" gradientUnits="userSpaceOnUse">
<stop stop-color="#F7DD43"/>
<stop offset="1" stop-color="#F7DD43" stop-opacity="0"/>
</linearGradient>
<linearGradient id="paint92_linear_122_130" x1="958.947" y1="36.8692" x2="958.947" y2="329.282" gradientUnits="userSpaceOnUse">
<stop stop-color="#F7DD43"/>
<stop offset="1" stop-color="#F7DD43" stop-opacity="0"/>
</linearGradient>
<linearGradient id="paint93_linear_122_130" x1="958.947" y1="36.8692" x2="958.947" y2="329.282" gradientUnits="userSpaceOnUse">
<stop stop-color="#F7DD43"/>
<stop offset="1" stop-color="#F7DD43" stop-opacity="0"/>
</linearGradient>
<clipPath id="clip0_122_130">
<rect width="1024" height="753" fill="white"/>
</clipPath>
</defs>
</svg>
